<svg xmlns="http://www.w3.org/2000/svg" width="48" height="48" id="rocket"><g fill-rule="evenodd" transform="translate(0 -1004.362)"><circle cx="24" cy="1028.362" r="24" fill="#424242"></circle><path fill="#1f212a" style="line-height:normal;text-indent:0;text-align:start;text-decoration-line:none;text-decoration-style:solid;text-decoration-color:#000;text-transform:none;block-progression:tb;isolation:auto;mix-blend-mode:normal" d="M21.188 1052.18c.138.023.277.044.416.063a23.885 23.885 0 0 0 4.093.058 24.145 24.145 0 0 0 4.723-.815 23.984 23.984 0 0 0 10.3-5.908 24.002 24.002 0 0 0 3.089-3.666 24 24 0 0 0 3.119-6.459c.164-.557.367-1.339.49-1.906-12.716-13.031-5.65-5.81-.002 0 .036-.137.071-.283.105-.42a23.999 23.999 0 0 0 .479-4.768c0-.566-.02-1.132-.06-1.697-.055-.712-.14-1.42-.258-2.125L38 1014.858a.5.5 0 0 0-.502-.5h-.014c-.026 0-.052 0-.078.01a19.84 19.84 0 0 0-7.611 1.55c-.013 0-.026.01-.04.015-.02.01-.044.014-.066.024a.503.503 0 0 0-.119.072c-.189.09-.397.197-.619.318-.013.01-.026.011-.039.018-.024.012-.046.027-.07.04-.097.053-.153.08-.244.132-3.255 1.713-6 4.126-8.213 6.834a4.999 4.999 0 0 0-1.315-.367c-1.686-.208-3.521.402-5.226 1.596-2.274 1.591-4.379 4.233-5.803 7.566a.5.5 0 0 0 .654.658l4.237 4.237-2.01 2.012.472.474.473.473-.474.472-.473-.472-.473-.473-.474.473.474.474.47.471-.47.473h.002-.002l.475.472.472.473.473.473z" color="#000" font-family="sans-serif" font-weight="400"></path><path fill="#fff" style="line-height:normal;text-indent:0;text-align:start;text-decoration-line:none;text-decoration-style:solid;text-decoration-color:#000;text-transform:none;block-progression:tb;isolation:auto;mix-blend-mode:normal" d="M30.484 1a.5.5 0 0 0-.078.01c-2.76.013-5.303.584-7.611 1.549a.5.5 0 0 0-.04.015c-.02.01-.044.015-.066.024a.5.5 0 0 0-.119.072c-.189.09-.397.197-.619.318a.5.5 0 0 0-.039.018c-.024.012-.046.027-.07.039-.097.053-.152.081-.244.133-3.255 1.713-6 4.126-8.213 6.834a4.995 4.995 0 0 0-1.315-.367v.001c-1.686-.207-3.521.403-5.226 1.596-2.274 1.592-4.379 4.233-5.803 7.567a.5.5 0 0 0 .766.591c2.063-1.6 3.668-2.463 4.79-2.666.562-.1.99-.049 1.348.121.309.147.58.398.828.772-.064.15-.143.3-.205.45a.5.5 0 0 0 .11.544l1.074 1.074c-.933 1.406-1.893 3.006-2.932 4.8-.001 0-.004-.001-.006.009a.5.5 0 0 0-.011.021.5.5 0 0 0-.006.014.5.5 0 0 0-.004.01.5.5 0 0 0-.016.039.5.5 0 0 0-.004.01.5.5 0 0 0-.01.037.5.5 0 0 0-.01.049.5.5 0 0 0-.003.029.5.5 0 0 0-.002.02.5.5 0 0 0 0 .011.5.5 0 0 0 .002.051.5.5 0 0 0 .004.04.5.5 0 0 0 .002.009.5.5 0 0 0 .012.049.5.5 0 0 0 .015.045.5.5 0 0 0 .016.037.5.5 0 0 0 .021.04.5.5 0 0 0 .002 0 .5.5 0 0 0 .006.01.5.5 0 0 0 .024.032.5.5 0 0 0 .005.01.5.5 0 0 0 .028.03.5.5 0 0 0 .025.024.5.5 0 0 0 .01.012.5.5 0 0 0 .008.01.5.5 0 0 0 .031.023.5.5 0 0 0 .008.01.5.5 0 0 0 .035.023.5.5 0 0 0 .045.024.5.5 0 0 0 .023.01.5.5 0 0 0 .022.01.5.5 0 0 0 .01 0 .5.5 0 0 0 .039.01.5.5 0 0 0 .035.01.5.5 0 0 0 .023 0 .5.5 0 0 0 .041 0 .5.5 0 0 0 .008 0 .5.5 0 0 0 .1-.01.5.5 0 0 0 .047-.012.5.5 0 0 0 .048-.018.5.5 0 0 0 .055-.027c.012-.01.02-.013.031-.02 1.784-1.035 3.379-1.994 4.78-2.924l1.037 1.037a.5.5 0 0 0 .545.11c.146-.06.294-.138.441-.201.804.526 1.09 1.142.912 2.19-.193 1.133-1.043 2.746-2.642 4.808a.5.5 0 0 0 .591.765c3.334-1.424 5.975-3.529 7.567-5.802 1.519-2.17 2.073-4.546 1.22-6.563 2.692-2.177 5.1-4.868 6.815-8.057.07-.121.112-.202.187-.334.158-.274.295-.53.409-.77a.5.5 0 0 0 .043-.08c0-.001 0-.003.002-.005.008-.019.025-.044.033-.063a.5.5 0 0 0 .033-.117A20.055 20.055 0 0 0 31 1.5a.5.5 0 0 0-.502-.5.5.5 0 0 0-.002 0 .5.5 0 0 0-.012 0zm-.539 1.057a18.978 18.978 0 0 1-1.175 6.088l-4.883-4.881a18.697 18.697 0 0 1 6.058-1.207Zm-7.144 1.625 5.558 5.57c-.044.085-.097.181-.146.273a.5.5 0 0 0-.002.002.5.5 0 0 0-.045.075c-.086.168-.182.33-.272.496-.095.167-.205.353-.271.484a.5.5 0 0 0-.025.06c-3.202 5.548-8.676 9.514-13.8 11.686l-.654-.654c.839-.588 1.62-1.17 2.268-1.754 1.879-1.691 2.944-3.49 2.707-5.541a.5.5 0 0 0-.023-.108l-.01-.023a.5.5 0 0 0-.213-.264l-.04-.023a.5.5 0 0 0-.2-.07v-.01c-2.052-.237-3.853.829-5.545 2.707-.585.649-1.169 1.431-1.758 2.271l-.691-.691c2.17-5.115 6.127-10.503 11.67-13.697a.5.5 0 0 0 .064-.028c.37-.187.999-.54 1.428-.761zm-1.264 4.312c-.634 0-1.27.24-1.75.72a2.48 2.48 0 0 0 .002 3.497 2.478 2.478 0 0 0 3.494 0 2.48 2.48 0 0 0 .002-3.496 2.465 2.465 0 0 0-1.748-.72Zm0 .994c.376 0 .752.144 1.041.434a1.465 1.465 0 0 1-.002 2.082 1.463 1.463 0 0 1-2.08 0 1.465 1.465 0 0 1-.002-2.082c.29-.29.667-.434 1.043-.434zm-10.486 1.653c.546.005 1.058.153 1.564.312-.163.223-.322.458-.482.688l-.035.052c-.39.561-.773 1.14-1.141 1.743-.31.501-.593 1.004-.87 1.511l-.146.27a32.136 32.136 0 0 0-.761 1.521c-.256-.283-.472-.63-.805-.787-.574-.272-1.24-.33-1.955-.201-.972.175-2.126.794-3.389 1.613 1.265-2.242 2.756-4.162 4.385-5.302 1.042-.73 2.086-1.194 3.076-1.374.19-.034.377-.048.559-.046zm5.982 4.328c-.013 1.449-.71 2.776-2.29 4.199-1.42 1.277-3.556 2.635-6.01 4.1 1.463-2.456 2.82-4.594 4.097-6.012 1.425-1.581 2.753-2.275 4.203-2.287zm4.016 4.408c.49 1.553.185 3.36-1.108 5.207-1.142 1.632-3.067 3.125-5.314 4.39.82-1.272 1.436-2.437 1.603-3.42.194-1.134-.262-2.047-1.013-2.761a32.864 32.864 0 0 0 1.574-.785l.076-.041c.464-.249.928-.49 1.389-.766a32.975 32.975 0 0 0 2.793-1.824zm-13.227 2.43-3.9 3.902.473.475 2.068-2.069a158.1 158.1 0 0 1 1.36-2.308zm2.334 2.404c-.732.442-1.505.894-2.308 1.361l-2.506 2.506.474.473 4.34-4.34zm-3.816.975-2.893 2.892.475.473 2.892-2.893c-.012 0-.025-.01-.037-.015a.5.5 0 0 1-.011-.01l-.047-.03.006.01a.892.892 0 0 1-.117-.086.5.5 0 0 1-.012-.011.5.5 0 0 1-.024-.022.5.5 0 0 1-.006 0 .5.5 0 0 0-.002 0 .5.5 0 0 1-.005-.01c-.007-.01-.015-.01-.022-.02a.5.5 0 0 1-.008-.01c-.008-.01-.017-.014-.025-.024a.95.95 0 0 1-.043-.05.5.5 0 0 1-.004-.01c-.018-.023-.031-.047-.047-.071a.5.5 0 0 1-.06-.096c-.003-.01-.007-.012-.01-.017zm-2.893.998-.474.472.474.475.473-.475-.473-.472Zm-.474 2.367-.473.474.473.473.474-.473-.474-.474Zm1.894 0-.472.474.472.473.475-.473-.475-.474z" color="#000" font-family="sans-serif" font-weight="400" overflow="visible" transform="translate(7 1013.362)"></path><path fill="#1f212a" style="line-height:normal;text-indent:0;text-align:start;text-decoration-line:none;text-decoration-style:solid;text-decoration-color:#000;text-transform:none;block-progression:tb;isolation:auto;mix-blend-mode:normal" d="M18.914 1051.802a24 24 0 0 0 .318.082 24 24 0 0 0 .838.127l-9.623-9.623-.474-.475-.473.475.473.472 8.941 8.942z" color="#000" font-family="sans-serif" font-weight="400"></path></g></svg>