<svg width="417" height="280" viewBox="0 0 417 280" fill="none" xmlns="http://www.w3.org/2000/svg">
<g clip-path="url(#clip0_118_418)">
<path d="M118.236 109.743C129.33 109.743 138.324 100.768 138.324 89.6978C138.324 78.6273 129.33 69.6528 118.236 69.6528C107.142 69.6528 98.1484 78.6273 98.1484 89.6978C98.1484 100.768 107.142 109.743 118.236 109.743Z" fill="#A25EB5"/>
<path d="M118.236 109.743C129.33 109.743 138.324 100.768 138.324 89.6978C138.324 78.6273 129.33 69.6528 118.236 69.6528C107.142 69.6528 98.1484 78.6273 98.1484 89.6978C98.1484 100.768 107.142 109.743 118.236 109.743Z" fill="#A25EB5"/>
<path d="M118.236 109.743C129.33 109.743 138.324 100.768 138.324 89.6978C138.324 78.6273 129.33 69.6528 118.236 69.6528C107.142 69.6528 98.1484 78.6273 98.1484 89.6978C98.1484 100.768 107.142 109.743 118.236 109.743Z" fill="#A25EB5"/>
<path d="M118.236 109.743C129.33 109.743 138.324 100.768 138.324 89.6978C138.324 78.6273 129.33 69.6528 118.236 69.6528C107.142 69.6528 98.1484 78.6273 98.1484 89.6978C98.1484 100.768 107.142 109.743 118.236 109.743Z" fill="#A25EB5"/>
<path d="M118.236 109.743C129.33 109.743 138.324 100.768 138.324 89.6978C138.324 78.6273 129.33 69.6528 118.236 69.6528C107.142 69.6528 98.1484 78.6273 98.1484 89.6978C98.1484 100.768 107.142 109.743 118.236 109.743Z" fill="#A25EB5"/>
<path d="M118.236 109.743C129.33 109.743 138.324 100.768 138.324 89.6978C138.324 78.6273 129.33 69.6528 118.236 69.6528C107.142 69.6528 98.1484 78.6273 98.1484 89.6978C98.1484 100.768 107.142 109.743 118.236 109.743Z" fill="#A25EB5"/>
<path d="M118.236 109.743C129.33 109.743 138.324 100.768 138.324 89.6978C138.324 78.6273 129.33 69.6528 118.236 69.6528C107.142 69.6528 98.1484 78.6273 98.1484 89.6978C98.1484 100.768 107.142 109.743 118.236 109.743Z" fill="#A25EB5"/>
<path d="M118.236 109.743C129.33 109.743 138.324 100.768 138.324 89.6978C138.324 78.6273 129.33 69.6528 118.236 69.6528C107.142 69.6528 98.1484 78.6273 98.1484 89.6978C98.1484 100.768 107.142 109.743 118.236 109.743Z" fill="#A25EB5"/>
<path d="M295.893 75.4756C306.987 75.4756 315.98 66.5012 315.98 55.4307C315.98 44.3602 306.987 35.3857 295.893 35.3857C284.798 35.3857 275.805 44.3602 275.805 55.4307C275.805 66.5012 284.798 75.4756 295.893 75.4756Z" fill="#D41367"/>
<path d="M295.893 75.4756C306.987 75.4756 315.98 66.5012 315.98 55.4307C315.98 44.3602 306.987 35.3857 295.893 35.3857C284.798 35.3857 275.805 44.3602 275.805 55.4307C275.805 66.5012 284.798 75.4756 295.893 75.4756Z" fill="#D41367"/>
<path d="M295.893 75.4756C306.987 75.4756 315.98 66.5012 315.98 55.4307C315.98 44.3602 306.987 35.3857 295.893 35.3857C284.798 35.3857 275.805 44.3602 275.805 55.4307C275.805 66.5012 284.798 75.4756 295.893 75.4756Z" fill="#D41367"/>
<path d="M295.893 75.4756C306.987 75.4756 315.98 66.5012 315.98 55.4307C315.98 44.3602 306.987 35.3857 295.893 35.3857C284.798 35.3857 275.805 44.3602 275.805 55.4307C275.805 66.5012 284.798 75.4756 295.893 75.4756Z" fill="#D41367"/>
<path d="M396.924 280C408.018 280 417.012 271.026 417.012 259.955C417.012 248.885 408.018 239.91 396.924 239.91C385.83 239.91 376.836 248.885 376.836 259.955C376.836 271.026 385.83 280 396.924 280Z" fill="#F09F54"/>
<path d="M396.924 280C408.018 280 417.012 271.026 417.012 259.955C417.012 248.885 408.018 239.91 396.924 239.91C385.83 239.91 376.836 248.885 376.836 259.955C376.836 271.026 385.83 280 396.924 280Z" fill="#F09F54"/>
<path d="M396.924 280C408.018 280 417.012 271.026 417.012 259.955C417.012 248.885 408.018 239.91 396.924 239.91C385.83 239.91 376.836 248.885 376.836 259.955C376.836 271.026 385.83 280 396.924 280Z" fill="#F09F54"/>
<path d="M396.924 280C408.018 280 417.012 271.026 417.012 259.955C417.012 248.885 408.018 239.91 396.924 239.91C385.83 239.91 376.836 248.885 376.836 259.955C376.836 271.026 385.83 280 396.924 280Z" fill="#F09F54"/>
<path d="M377.638 78.0625C372.484 72.6593 366.498 69.9427 359.853 69.9427C341.426 69.9427 333.079 92.8141 329.556 108.225C326.123 97.8178 322.319 88.1199 318.176 79.1512C316.194 81.0188 313.962 82.6668 311.55 84.0151C316.944 95.8603 321.699 109.034 325.832 123.496C326.443 125.713 328.575 127.181 330.897 126.961C333.189 126.752 335.01 124.934 335.201 122.647C336.522 108.065 344.279 77.9726 359.843 77.9726C364.266 77.9726 368.19 79.8103 371.833 83.6156C391.941 104.569 394.323 187.316 394.233 228.005C395.134 227.935 396.005 227.885 396.905 227.885C398.747 227.885 400.569 228.025 402.32 228.335C402.46 186.777 399.858 101.274 377.628 78.0725L377.638 78.0625ZM194.516 1.45828C149.716 8.65928 133.051 42.1474 127.727 57.3684C130.329 58.1474 132.811 59.2061 135.103 60.5344C139.547 47.3209 154.33 16.0201 195.787 9.36839C225.023 4.67426 250.916 12.5544 272.465 32.07C274.527 30.2023 276.819 28.5744 279.301 27.276C255.79 5.18362 227.105 -3.78517 194.516 1.45828Z" fill="#898A8D"/>
<path d="M83.5541 242.487V274.417C83.5541 277.334 81.182 279.701 78.2594 279.701H5.38478C2.41214 279.701 0 277.294 0 274.327V30.1326C0 27.1663 2.41214 24.7593 5.38478 24.7593H37.193C40.1656 24.7593 42.5778 27.1663 42.5778 30.1326V232.649C42.5778 235.166 44.6196 237.204 47.1418 237.204H78.2594C81.182 237.204 83.5541 239.571 83.5541 242.487Z" fill="#2D2A26"/>
<path d="M197.252 71.251H162.841C160.586 71.251 158.758 73.0754 158.758 75.3259V275.616C158.758 277.866 160.586 279.69 162.841 279.69H197.252C199.507 279.69 201.336 277.866 201.336 275.616V75.3259C201.336 73.0754 199.507 71.251 197.252 71.251Z" fill="#2D2A26"/>
<path d="M351.062 142.612H317.072C314.709 142.612 312.788 144.519 312.788 146.906V166.822C302.409 155.306 288.216 148.225 272.602 148.225C240.764 148.225 214.961 177.658 214.961 213.953C214.961 250.247 240.764 279.7 272.602 279.7C288.216 279.7 302.399 272.599 312.788 261.104V275.406C312.788 277.763 314.699 279.7 317.072 279.7H351.062C353.454 279.7 355.365 277.763 355.365 275.406V146.906C355.365 144.519 353.454 142.612 351.062 142.612ZM282.971 242.327C267.147 242.327 254.286 229.084 254.286 212.754C254.286 196.425 267.147 183.211 282.971 183.211C298.795 183.211 311.637 196.425 311.637 212.754C311.637 229.084 298.795 242.327 282.971 242.327Z" fill="#2D2A26"/>
<path d="M136.427 142.602H102.417C100.051 142.602 98.1328 144.516 98.1328 146.877V275.416C98.1328 277.777 100.051 279.691 102.417 279.691H136.427C138.793 279.691 140.711 277.777 140.711 275.416V146.877C140.711 144.516 138.793 142.602 136.427 142.602Z" fill="#2D2A26"/>
</g>
<defs>
<clipPath id="clip0_118_418">
<rect width="417" height="280" fill="white"/>
</clipPath>
</defs>
</svg>
