<svg xmlns="http://www.w3.org/2000/svg" width="458.72137" height="120.02694" viewBox="0 0 1376.1641 360.08081">
  <path d="M0 180.0808v-180h91.999999v360H0Zm115 0v-180h97.91004l88.04498 103.03803L389 206.15685V.0808h98v360l-52.25-.0113-52.25-.0112-85.75-100.07279L211 159.91271V360.0808h-96zm401 0v-180h86.99134l.25433 111.37436.25433 111.37437 95.5502-111.12437L794.6004.5808l60.78573-.25778L916.1719.06524l-.336.82555-.3359.82555-148.82555 179.18223L617.8489 360.0808H516Zm140.41642 174.25 4.54913-5.75 142.28191-174 142.28194-174 50.2353-.25925L1046 .0623v360.0185h-91v-80l-61.75.074-61.75.074-33 39.91758-33 39.91757-56.81635.008-56.81635.008 4.54912-5.75zM956 167.3808v-30.7l-.8628.95-.8627.95-6.9173 8-6.9172 8-18.7661 21.75-18.76611 21.75H956Zm113 12.6596V0l100.75.34205L1270.5.6841l9.8124 2.23164 9.8125 2.23165 8.0562 2.94015 8.0562 2.94015 6.6313 3.63235 6.6314 3.63235 6.5702 4.85554 6.5701 4.85554 8.5002 8.81761 8.5002 8.81761 5.0413 7.47106 5.0413 7.47105 3.5127 7 3.5127 7 2.6101 7.26633 2.61 7.26633 2.0977 10.23367 2.0976 10.23367v28l-1.643 9.5-1.6429 9.5-3.4807 10.45114-3.4807 10.45113-5.0704 9.69566-5.0703 9.69567-6.271 8.3532-6.2709 8.3532-8.4064 8.06824-8.4063 8.06824-6.344 4.30809-6.3439 4.3081-8.1244 3.80719-8.1243 3.80719-8.4945 2.4567-8.4945 2.45669-9.5394 1.62032-9.5394 1.62032-14.9606.96887-14.9606.96886-34.75.0206-34.7459.0206v104h-93zm182-17.76922 6.5-2.19959 4.6674-3.44517 4.6674-3.44517 3.2344-4.70103 3.2344-4.70103 1.8482-5.93829 1.8482-5.93829V121.4438l-1.4768-4.97279-1.4767-4.97279-3.4207-4.81127-3.4207-4.81126-4.8139-3.42253-4.8138-3.42253-6.5387-2.1699-6.5387-2.16989-41.25-.38261-41.25-.38261v75.31036l41.25-.38261 41.25-.38261z" style="fill:#007034"/>
</svg>
