<?xml version="1.0" encoding="utf-8"?>
<svg viewBox="164.045 158.4991 213.653 37.6719" xmlns="http://www.w3.org/2000/svg">
  <path class="cls-1" d="M 195.665 195.551 C 196.385 195.551 197.115 195.471 197.825 195.391 C 200.516 195.263 203.052 194.094 204.895 192.131 C 206.34 190.619 207.22 188.655 207.385 186.571 C 207.574 183.057 206.287 179.624 203.835 177.101 C 203.696 176.958 203.602 176.777 203.565 176.581 C 203.375 174.964 202.068 173.708 200.445 173.581 C 198.543 173.331 196.622 173.251 194.705 173.341 C 194.349 173.396 194.011 173.164 193.935 172.811 C 193.235 170.811 192.475 168.881 191.785 166.901 C 191.288 165.19 190.409 163.614 189.215 162.291 C 188.375 161.411 187.625 160.441 186.815 159.531 C 185.605 158.141 185.945 158.281 184.535 159.211 C 184.065 159.521 183.985 159.791 184.405 160.211 C 185.155 160.991 185.845 161.821 186.575 162.621 C 188.306 164.356 189.586 166.488 190.305 168.831 C 190.693 170.171 191.16 171.486 191.705 172.771 C 191.945 173.361 191.765 173.491 191.225 173.531 C 189.899 173.622 188.684 174.305 187.915 175.391 C 187.445 176.021 187.165 176.751 186.725 177.391 C 185.511 179.044 184.576 180.885 183.955 182.841 C 182.644 187.527 185.004 192.461 189.475 194.381 C 191.446 195.16 193.547 195.558 195.665 195.551 Z" style="fill: rgb(60, 60, 59);"/>
  <path class="cls-2" d="M 195.665 195.551 C 193.542 195.552 191.437 195.149 189.465 194.361 C 184.994 192.441 182.634 187.507 183.945 182.821 C 184.566 180.865 185.501 179.024 186.715 177.371 C 187.155 176.751 187.435 176.021 187.905 175.371 C 188.672 174.281 189.887 173.595 191.215 173.501 C 191.755 173.501 191.935 173.331 191.695 172.741 C 191.155 171.466 190.691 170.16 190.305 168.831 C 189.586 166.496 188.309 164.372 186.585 162.641 C 185.855 161.841 185.165 161.011 184.415 160.231 C 183.995 159.791 184.075 159.521 184.545 159.231 C 185.945 158.281 185.605 158.141 186.815 159.501 C 187.625 160.411 188.375 161.381 189.215 162.261 C 190.409 163.584 191.288 165.16 191.785 166.871 C 192.475 168.871 193.235 170.801 193.935 172.781 C 194.011 173.134 194.349 173.366 194.705 173.311 C 196.622 173.221 198.543 173.301 200.445 173.551 C 202.068 173.678 203.375 174.934 203.565 176.551 C 203.602 176.747 203.696 176.928 203.835 177.071 C 206.287 179.594 207.574 183.027 207.385 186.541 C 207.22 188.625 206.34 190.589 204.895 192.101 C 203.052 194.064 200.516 195.233 197.825 195.361 C 197.115 195.501 196.385 195.501 195.665 195.551 Z M 196.465 177.551 L 196.465 177.731 C 196.158 177.816 195.843 177.873 195.525 177.901 C 193.078 178.007 190.646 177.477 188.465 176.361 C 188.065 176.141 187.905 176.201 187.695 176.561 C 187.485 176.921 187.855 177.031 188.065 177.171 C 188.258 177.283 188.463 177.373 188.675 177.441 C 192.888 179.087 197.574 179.044 201.755 177.321 C 203.265 176.741 203.315 176.601 202.365 175.261 C 202.155 174.951 201.985 174.661 201.595 175.141 C 201.293 175.448 200.907 175.66 200.485 175.751 C 196.675 176.931 192.945 177.051 189.355 175.011 C 188.865 174.731 188.765 175.201 188.575 175.401 C 188.385 175.601 188.715 175.751 188.855 175.821 C 190.518 176.642 192.318 177.151 194.165 177.321 L 196.465 177.551 Z M 194.465 175.911 C 194.473 175.654 194.407 175.401 194.275 175.181 C 193.185 172.181 192.045 169.181 190.995 166.181 C 190.589 164.984 189.95 163.88 189.115 162.931 C 188.115 161.741 187.115 160.531 186.045 159.331 C 185.515 158.711 185.285 159.461 184.955 159.601 C 184.625 159.741 184.955 159.991 185.045 160.141 C 186.099 161.354 187.155 162.561 188.215 163.761 C 189.284 164.988 190.091 166.42 190.585 167.971 C 191.395 170.361 192.315 172.711 193.115 175.101 C 193.263 175.689 193.853 176.053 194.445 175.921 L 194.465 175.911 Z M 196.865 173.811 L 194.865 173.811 C 194.575 173.811 194.435 173.911 194.555 174.221 C 194.745 174.721 194.925 175.221 195.125 175.731 C 195.235 176.031 195.515 175.981 195.755 175.981 C 195.995 175.981 196.075 175.981 196.165 175.691 C 196.305 175.191 196.995 175.401 197.035 175.501 C 197.245 176.201 197.745 175.831 198.035 175.771 C 199.105 175.616 200.151 175.324 201.145 174.901 C 201.305 174.831 201.565 174.901 201.575 174.641 C 201.585 174.381 201.315 174.371 201.145 174.291 C 200.979 174.22 200.804 174.169 200.625 174.141 C 199.381 173.897 198.113 173.789 196.845 173.821 L 196.865 173.811 Z M 191.455 173.971 C 191.058 174.011 190.668 174.105 190.295 174.251 C 190.175 174.251 190.005 174.311 190.005 174.481 C 190.005 174.651 190.165 174.691 190.285 174.741 L 192.175 175.481 C 192.295 175.531 192.445 175.591 192.525 175.421 C 192.705 175.061 192.015 173.971 191.435 173.981 L 191.455 173.971 Z" style="fill: rgb(234, 171, 0);"/>
  <path class="cls-1" d="M 194.445 175.921 C 193.843 176.064 193.239 175.693 193.095 175.091 C 192.295 172.701 191.375 170.351 190.565 167.961 C 190.071 166.41 189.264 164.978 188.195 163.751 C 187.135 162.551 186.079 161.344 185.025 160.131 C 184.895 159.981 184.495 159.791 184.935 159.591 C 185.375 159.391 185.495 158.701 186.025 159.321 C 187.025 160.521 188.025 161.731 189.095 162.921 C 189.93 163.87 190.569 164.974 190.975 166.171 C 191.975 169.171 193.165 172.171 194.255 175.171 C 194.391 175.397 194.457 175.657 194.445 175.921 Z" style="fill: rgb(60, 60, 59);"/>
  <path class="cls-1" d="M 203.085 192.501 C 198.916 195.115 193.674 195.328 189.305 193.061 C 186.895 191.593 185.283 189.109 184.925 186.311 C 184.741 184.784 184.92 183.235 185.445 181.791 C 185.835 180.721 186.755 178.311 188.175 178.401 C 189.125 178.579 190.054 178.857 190.945 179.231 C 192.053 179.541 193.188 179.739 194.335 179.821 C 196.581 180.001 198.841 179.74 200.985 179.051 C 201.849 178.629 202.852 178.604 203.735 178.981 C 204.588 179.696 205.219 180.639 205.555 181.701 C 206.594 183.889 206.765 186.39 206.035 188.701 C 205.48 190.248 204.447 191.578 203.085 192.501 Z" style="fill: rgb(60, 60, 59);"/>
  <path class="cls-3" d="M 246.705 166.291 L 248.705 166.291 L 248.915 167.551 C 249.398 166.536 250.433 165.901 251.555 165.931 C 252.744 165.886 253.814 166.645 254.165 167.781 C 254.637 166.644 255.755 165.91 256.985 165.931 C 258.009 165.839 258.988 166.366 259.475 167.271 C 260.081 168.937 260.33 170.712 260.205 172.481 L 260.205 181.001 L 257.995 181.001 L 257.995 172.581 C 257.995 171.481 257.995 170.581 257.905 170.021 C 257.887 169.562 257.796 169.11 257.635 168.681 C 257.401 168.186 256.88 167.893 256.335 167.951 C 255.757 167.907 255.211 168.22 254.955 168.741 C 254.779 169.167 254.674 169.62 254.645 170.081 C 254.585 170.671 254.545 171.501 254.545 172.581 L 254.545 181.001 L 252.305 181.001 L 252.305 172.581 C 252.317 171.739 252.283 170.898 252.205 170.061 C 252.181 169.593 252.086 169.131 251.925 168.691 C 251.679 168.192 251.149 167.897 250.595 167.951 C 250.031 167.901 249.498 168.214 249.265 168.731 C 249.094 169.165 248.992 169.624 248.965 170.091 C 248.905 170.697 248.875 171.527 248.875 172.581 L 248.875 181.001 L 246.705 181.001 L 246.705 166.291 Z" style="stroke: rgb(255, 255, 255); stroke-miterlimit: 10;"/>
  <path class="cls-3" d="M 268.165 181.391 C 266.882 181.439 265.628 181 264.655 180.161 C 263.705 179.242 263.21 177.949 263.305 176.631 C 263.239 175.552 263.566 174.486 264.225 173.631 C 264.864 172.905 265.702 172.383 266.635 172.131 C 267.662 171.833 268.727 171.685 269.795 171.691 L 273.045 171.691 L 273.045 171.311 C 273.141 170.332 272.77 169.365 272.045 168.701 C 271.258 168.165 270.316 167.904 269.365 167.961 C 268.476 167.959 267.59 168.083 266.735 168.331 C 265.896 168.561 265.09 168.897 264.335 169.331 L 264.335 166.961 C 265.132 166.661 265.947 166.414 266.775 166.221 C 267.605 166.029 268.454 165.931 269.305 165.931 C 270.168 165.929 271.027 166.05 271.855 166.291 C 272.659 166.522 273.398 166.936 274.015 167.501 C 274.646 168.088 275.071 168.863 275.225 169.711 C 275.392 170.678 275.462 171.659 275.435 172.641 L 275.435 175.641 C 275.435 176.461 275.485 177.371 275.575 178.371 C 275.643 179.283 275.859 180.178 276.215 181.021 L 273.775 181.021 C 273.629 180.667 273.512 180.303 273.425 179.931 C 273.332 179.537 273.262 179.157 273.215 178.791 C 272.727 179.667 271.975 180.367 271.065 180.791 C 270.155 181.204 269.165 181.409 268.165 181.391 Z M 268.765 179.391 C 269.635 179.431 270.492 179.174 271.195 178.661 C 271.83 178.162 272.309 177.492 272.575 176.731 C 272.865 175.908 273.01 175.042 273.005 174.171 L 273.005 173.641 L 269.945 173.641 C 269.272 173.637 268.601 173.714 267.945 173.871 C 267.336 173.998 266.776 174.3 266.335 174.741 C 265.877 175.255 265.646 175.933 265.695 176.621 C 265.635 177.409 265.95 178.18 266.545 178.701 C 267.187 179.171 267.971 179.405 268.765 179.361 L 268.765 179.391 Z" style="stroke: rgb(255, 255, 255); stroke-miterlimit: 10;"/>
  <path class="cls-3" d="M 288.305 181.061 C 286.935 181.195 285.566 180.801 284.475 179.961 C 283.601 178.916 283.18 177.567 283.305 176.211 L 283.305 168.211 L 279.405 168.211 L 279.405 166.291 L 283.305 166.291 L 283.305 162.431 L 285.725 161.431 L 285.725 166.291 L 291.215 166.291 L 291.215 168.161 L 285.725 168.161 L 285.725 176.211 C 285.641 177.018 285.863 177.828 286.345 178.481 C 286.946 178.976 287.721 179.21 288.495 179.131 L 291.215 179.131 L 291.215 181.061 L 288.305 181.061 Z" style="stroke: rgb(255, 255, 255); stroke-miterlimit: 10;"/>
  <path class="cls-3" d="M 302.795 181.391 C 300.805 181.499 298.862 180.753 297.455 179.341 C 296.1 177.808 295.403 175.803 295.515 173.761 C 295.495 172.389 295.757 171.027 296.285 169.761 C 297.275 167.341 299.673 165.798 302.285 165.901 C 304.017 165.805 305.697 166.501 306.855 167.791 C 308.011 169.276 308.587 171.132 308.475 173.011 L 308.475 174.191 L 298.045 174.191 L 298.045 174.271 C 297.98 175.619 298.43 176.942 299.305 177.971 C 300.233 178.935 301.541 179.437 302.875 179.341 C 303.777 179.34 304.672 179.191 305.525 178.901 C 306.375 178.627 307.204 178.293 308.005 177.901 L 308.005 180.311 C 307.183 180.644 306.337 180.918 305.475 181.131 C 304.595 181.321 303.696 181.409 302.795 181.391 Z M 306.095 172.331 C 306.107 171.578 305.982 170.829 305.725 170.121 C 305.506 169.492 305.097 168.948 304.555 168.561 C 303.922 168.145 303.172 167.942 302.415 167.981 C 301.627 167.952 300.848 168.157 300.175 168.571 C 299.575 168.957 299.091 169.5 298.775 170.141 C 298.427 170.824 298.21 171.567 298.135 172.331 L 306.095 172.331 Z" style="stroke: rgb(255, 255, 255); stroke-miterlimit: 10;"/>
  <path class="cls-4" d="M 314.445 161.381 L 317.025 161.381 L 318.905 177.311 L 321.145 166.771 L 323.915 166.771 L 326.175 177.341 L 328.055 161.341 L 330.645 161.341 L 327.715 181.001 L 325.205 181.001 L 322.535 169.351 L 319.885 181.001 L 317.375 181.001 L 314.445 161.381 Z" style=""/>
  <path class="cls-4" d="M 337.305 181.391 C 336.019 181.438 334.763 180.998 333.785 180.161 C 332.827 179.245 332.322 177.953 332.405 176.631 C 332.334 175.552 332.661 174.484 333.325 173.631 C 333.96 172.905 334.795 172.383 335.725 172.131 C 336.756 171.833 337.823 171.685 338.895 171.691 L 342.145 171.691 L 342.145 171.311 C 342.246 170.331 341.874 169.362 341.145 168.701 C 340.363 168.163 339.423 167.903 338.475 167.961 C 337.586 167.958 336.7 168.083 335.845 168.331 C 335.006 168.561 334.2 168.897 333.445 169.331 L 333.445 166.961 C 334.242 166.661 335.057 166.414 335.885 166.221 C 336.712 166.028 337.557 165.931 338.405 165.931 C 339.272 165.929 340.133 166.05 340.965 166.291 C 341.789 166.516 342.549 166.93 343.185 167.501 C 343.808 168.094 344.23 168.867 344.395 169.711 C 344.562 170.678 344.632 171.659 344.605 172.641 L 344.605 175.641 C 344.605 176.461 344.605 177.371 344.735 178.371 C 344.813 179.281 345.029 180.175 345.375 181.021 L 342.945 181.021 C 342.79 180.671 342.673 180.305 342.595 179.931 C 342.502 179.537 342.432 179.157 342.385 178.791 C 341.894 179.665 341.143 180.364 340.235 180.791 C 339.316 181.207 338.315 181.412 337.305 181.391 Z M 337.895 179.391 C 338.768 179.431 339.629 179.174 340.335 178.661 C 340.964 178.158 341.438 177.489 341.705 176.731 C 342.003 175.91 342.152 175.043 342.145 174.171 L 342.145 173.641 L 339.105 173.641 C 338.432 173.636 337.76 173.714 337.105 173.871 C 336.494 174 335.931 174.302 335.485 174.741 C 335.031 175.257 334.801 175.934 334.845 176.621 C 334.788 177.411 335.107 178.182 335.705 178.701 C 336.346 179.172 337.131 179.405 337.925 179.361 L 337.895 179.391 Z" style=""/>
  <path class="cls-4" d="M 350.815 166.291 L 353.015 166.291 L 353.245 169.161 C 353.608 168.193 354.256 167.359 355.105 166.771 C 355.996 166.19 357.043 165.897 358.105 165.931 C 359.225 165.906 360.325 166.227 361.255 166.851 L 361.255 169.321 C 360.309 168.547 359.118 168.135 357.895 168.161 C 356.593 168.083 355.327 168.61 354.465 169.591 C 353.595 170.769 353.17 172.218 353.265 173.681 L 353.265 181.001 L 350.835 181.001 L 350.815 166.291 Z" style=""/>
  <path class="cls-4" d="M 371.965 181.391 C 369.975 181.499 368.032 180.753 366.625 179.341 C 365.267 177.81 364.569 175.804 364.685 173.761 C 364.659 172.388 364.921 171.025 365.455 169.761 C 365.929 168.624 366.721 167.648 367.735 166.951 C 368.851 166.222 370.164 165.856 371.495 165.901 C 373.224 165.803 374.903 166.498 376.055 167.791 C 377.215 169.275 377.794 171.13 377.685 173.011 L 377.685 174.191 L 367.205 174.191 L 367.205 174.271 C 367.134 175.602 367.566 176.913 368.415 177.941 C 369.348 178.903 370.658 179.405 371.995 179.311 C 372.894 179.311 373.786 179.162 374.635 178.871 C 375.486 178.599 376.315 178.265 377.115 177.871 L 377.115 180.281 C 376.294 180.617 375.448 180.891 374.585 181.101 C 373.726 181.298 372.847 181.395 371.965 181.391 Z M 375.265 172.331 C 375.277 171.578 375.152 170.829 374.895 170.121 C 374.668 169.494 374.257 168.95 373.715 168.561 C 373.085 168.145 372.339 167.942 371.585 167.981 C 370.047 167.908 368.612 168.757 367.935 170.141 C 367.587 170.824 367.37 171.567 367.295 172.331 L 375.265 172.331 Z" style=""/>
  <path class="cls-5" d="M 167.755 183.351 C 167.524 183.51 167.28 183.65 167.025 183.771 C 166.76 183.897 166.486 184.004 166.205 184.091 C 166.756 184.272 167.278 184.531 167.755 184.861 L 179.835 193.191 C 180.026 193.301 180.185 193.46 180.295 193.651 C 180.386 193.826 180.431 194.023 180.425 194.221 L 180.425 196.151 L 164.045 184.721 L 164.045 183.501 L 180.425 172.101 L 180.425 174.021 C 180.432 174.219 180.388 174.415 180.295 174.591 C 180.178 174.778 180.021 174.939 179.835 175.061 L 167.755 183.351 Z" style="fill: rgb(111, 111, 110);"/>
  <path class="cls-5" d="M 223.305 184.911 C 223.535 184.751 223.78 184.614 224.035 184.501 C 224.303 184.377 224.577 184.267 224.855 184.171 C 224.303 183.993 223.78 183.734 223.305 183.401 L 211.245 175.081 C 210.878 174.883 210.651 174.498 210.655 174.081 L 210.655 172.121 L 227.035 183.551 L 227.035 184.761 L 210.655 196.171 L 210.655 194.241 C 210.652 194.046 210.697 193.854 210.785 193.681 C 210.906 193.492 211.062 193.329 211.245 193.201 L 223.305 184.911 Z" style="fill: rgb(111, 111, 110);"/>
  <path class="cls-6" d="M 246.665 185.501 L 251.405 185.501 L 251.405 186.401 L 247.745 186.401 L 247.745 188.771 L 251.245 188.771 L 251.245 189.681 L 247.745 189.681 L 247.745 192.571 L 251.505 192.571 L 251.505 193.501 L 246.665 193.501 L 246.665 185.501 Z" style="fill: rgb(234, 171, 0); stroke: rgb(235, 171, 0); stroke-miterlimit: 10; stroke-width: 0.25px;"/>
  <path class="cls-6" d="M 257.575 193.501 C 257.059 193.53 256.557 193.32 256.215 192.931 C 255.862 192.475 255.688 191.906 255.725 191.331 L 255.725 185.921 L 254.155 185.921 L 254.155 185.151 L 256.715 185.151 L 256.715 191.341 C 256.69 191.691 256.774 192.04 256.955 192.341 C 257.122 192.57 257.392 192.701 257.675 192.691 L 258.825 192.691 L 258.825 193.501 L 257.575 193.501 Z" style="fill: rgb(234, 171, 0); stroke: rgb(235, 171, 0); stroke-miterlimit: 10; stroke-width: 0.25px;"/>
  <path class="cls-6" d="M 264.385 193.621 C 263.577 193.667 262.787 193.365 262.215 192.791 C 261.665 192.166 261.382 191.351 261.425 190.521 C 261.42 189.968 261.529 189.419 261.745 188.911 C 261.933 188.443 262.257 188.042 262.675 187.761 C 263.128 187.469 263.658 187.322 264.195 187.341 C 264.899 187.298 265.583 187.578 266.055 188.101 C 266.527 188.707 266.762 189.464 266.715 190.231 L 266.715 190.711 L 262.455 190.711 C 262.424 191.251 262.599 191.784 262.945 192.201 C 263.325 192.594 263.86 192.799 264.405 192.761 C 264.77 192.762 265.132 192.701 265.475 192.581 C 265.821 192.468 266.156 192.324 266.475 192.151 L 266.475 193.151 C 266.15 193.286 265.816 193.4 265.475 193.491 C 265.118 193.576 264.753 193.62 264.385 193.621 Z M 265.735 189.941 C 265.74 189.634 265.689 189.329 265.585 189.041 C 265.497 188.785 265.329 188.564 265.105 188.411 C 264.848 188.24 264.544 188.156 264.235 188.171 C 263.915 188.159 263.598 188.242 263.325 188.411 C 263.078 188.565 262.881 188.787 262.755 189.051 C 262.61 189.327 262.521 189.629 262.495 189.941 L 265.735 189.941 Z" style="fill: rgb(234, 171, 0); stroke: rgb(235, 171, 0); stroke-miterlimit: 10; stroke-width: 0.25px;"/>
  <path class="cls-6" d="M 272.115 193.621 C 271.558 193.641 271.007 193.502 270.525 193.221 C 270.088 192.964 269.74 192.58 269.525 192.121 C 269.092 191.07 269.092 189.891 269.525 188.841 C 269.741 188.379 270.089 187.992 270.525 187.731 C 271.017 187.457 271.573 187.322 272.135 187.341 C 272.439 187.334 272.742 187.371 273.035 187.451 C 273.318 187.535 273.59 187.652 273.845 187.801 L 273.845 188.801 C 273.623 188.591 273.366 188.422 273.085 188.301 C 272.81 188.187 272.513 188.133 272.215 188.141 C 271.809 188.119 271.406 188.227 271.065 188.451 C 270.779 188.657 270.563 188.947 270.445 189.281 C 270.192 190.037 270.192 190.855 270.445 191.611 C 270.566 191.945 270.781 192.237 271.065 192.451 C 271.406 192.674 271.809 192.782 272.215 192.761 C 272.516 192.764 272.815 192.709 273.095 192.601 C 273.378 192.494 273.634 192.327 273.845 192.111 L 273.845 193.111 C 273.329 193.442 272.729 193.619 272.115 193.621 Z" style="fill: rgb(234, 171, 0); stroke: rgb(235, 171, 0); stroke-miterlimit: 10; stroke-width: 0.25px;"/>
  <path class="cls-6" d="M 280.235 193.501 C 279.677 193.555 279.119 193.394 278.675 193.051 C 278.326 192.625 278.161 192.078 278.215 191.531 L 278.215 188.241 L 276.625 188.241 L 276.625 187.501 L 278.215 187.501 L 278.215 185.911 L 279.215 185.491 L 279.215 187.491 L 281.445 187.491 L 281.445 188.251 L 279.205 188.251 L 279.205 191.501 C 279.171 191.828 279.26 192.156 279.455 192.421 C 279.701 192.623 280.019 192.717 280.335 192.681 L 281.435 192.681 L 281.435 193.501 L 280.235 193.501 Z" style="fill: rgb(234, 171, 0); stroke: rgb(235, 171, 0); stroke-miterlimit: 10; stroke-width: 0.25px;"/>
  <path class="cls-6" d="M 285.115 187.501 L 286.005 187.501 L 286.105 188.671 C 286.246 188.268 286.508 187.919 286.855 187.671 C 287.218 187.444 287.638 187.329 288.065 187.341 C 288.523 187.33 288.973 187.459 289.355 187.711 L 289.355 188.711 C 288.968 188.399 288.483 188.232 287.985 188.241 C 287.455 188.211 286.94 188.425 286.585 188.821 C 286.235 189.308 286.065 189.902 286.105 190.501 L 286.105 193.501 L 285.105 193.501 L 285.115 187.501 Z" style="fill: rgb(234, 171, 0); stroke: rgb(235, 171, 0); stroke-miterlimit: 10; stroke-width: 0.25px;"/>
  <path class="cls-6" d="M 294.375 193.621 C 293.647 193.665 292.94 193.365 292.465 192.811 C 291.987 192.139 291.754 191.323 291.805 190.501 C 291.749 189.669 291.986 188.845 292.475 188.171 C 293.511 187.089 295.24 187.089 296.275 188.171 C 296.759 188.851 296.992 189.678 296.935 190.511 C 296.992 191.34 296.759 192.164 296.275 192.841 C 295.797 193.381 295.095 193.669 294.375 193.621 Z M 294.375 192.791 C 294.83 192.809 295.259 192.58 295.495 192.191 C 295.795 191.669 295.934 191.071 295.895 190.471 C 295.934 189.877 295.794 189.285 295.495 188.771 C 295.259 188.382 294.83 188.152 294.375 188.171 C 293.918 188.152 293.487 188.382 293.245 188.771 C 292.95 189.287 292.811 189.877 292.845 190.471 C 292.812 191.07 292.951 191.667 293.245 192.191 C 293.487 192.58 293.918 192.809 294.375 192.791 Z" style="fill: rgb(234, 171, 0); stroke: rgb(235, 171, 0); stroke-miterlimit: 10; stroke-width: 0.25px;"/>
  <path class="cls-6" d="M 299.695 187.501 L 300.585 187.501 L 300.675 188.401 C 301.008 187.744 301.701 187.35 302.435 187.401 C 303.655 187.401 304.275 188.201 304.275 189.821 L 304.275 193.501 L 303.275 193.501 L 303.275 189.761 C 303.305 189.345 303.207 188.93 302.995 188.571 C 302.788 188.306 302.461 188.163 302.125 188.191 C 301.705 188.17 301.301 188.356 301.045 188.691 C 300.77 189.1 300.636 189.588 300.665 190.081 L 300.665 193.501 L 299.665 193.501 L 299.695 187.501 Z" style="fill: rgb(234, 171, 0); stroke: rgb(235, 171, 0); stroke-miterlimit: 10; stroke-width: 0.25px;"/>
  <path class="cls-6" d="M 310.825 193.501 C 310.306 193.53 309.801 193.32 309.455 192.931 C 309.11 192.471 308.94 191.904 308.975 191.331 L 308.975 188.251 L 307.665 188.251 L 307.665 187.501 L 309.955 187.501 L 309.955 191.361 C 309.928 191.712 310.016 192.063 310.205 192.361 C 310.366 192.591 310.634 192.723 310.915 192.711 L 312.065 192.711 L 312.065 193.501 L 310.825 193.501 Z M 309.025 186.381 C 308.932 186.395 308.851 186.314 308.865 186.221 L 308.865 185.301 C 308.851 185.207 308.932 185.126 309.025 185.141 L 309.795 185.141 C 309.889 185.126 309.97 185.207 309.955 185.301 L 309.955 186.221 C 309.97 186.314 309.889 186.395 309.795 186.381 L 309.025 186.381 Z" style="fill: rgb(234, 171, 0); stroke: rgb(235, 171, 0); stroke-miterlimit: 10; stroke-width: 0.25px;"/>
  <path class="cls-6" d="M 317.575 193.621 C 317.018 193.641 316.467 193.502 315.985 193.221 C 315.547 192.965 315.198 192.581 314.985 192.121 C 314.545 191.071 314.545 189.89 314.985 188.841 C 315.202 188.38 315.55 187.994 315.985 187.731 C 316.472 187.454 317.026 187.319 317.585 187.341 C 317.889 187.334 318.192 187.371 318.485 187.451 C 318.772 187.535 319.047 187.652 319.305 187.801 L 319.305 188.801 C 319.08 188.595 318.823 188.426 318.545 188.301 C 318.269 188.189 317.973 188.135 317.675 188.141 C 317.266 188.119 316.86 188.227 316.515 188.451 C 316.232 188.66 316.016 188.949 315.895 189.281 C 315.771 189.658 315.71 190.053 315.715 190.451 C 315.709 190.845 315.774 191.238 315.905 191.611 C 316.022 191.947 316.238 192.24 316.525 192.451 C 316.862 192.675 317.262 192.784 317.665 192.761 C 317.966 192.765 318.265 192.711 318.545 192.601 C 318.83 192.492 319.089 192.325 319.305 192.111 L 319.305 193.111 C 318.788 193.439 318.188 193.616 317.575 193.621 Z" style="fill: rgb(234, 171, 0); stroke: rgb(235, 171, 0); stroke-miterlimit: 10; stroke-width: 0.25px;"/>
  <path class="cls-6" d="M 332.085 193.621 C 331.702 193.62 331.32 193.58 330.945 193.501 C 330.555 193.417 330.173 193.297 329.805 193.141 L 329.805 191.991 C 330.168 192.232 330.562 192.424 330.975 192.561 C 331.325 192.687 331.694 192.752 332.065 192.751 C 332.522 192.777 332.974 192.647 333.345 192.381 C 333.653 192.122 333.82 191.732 333.795 191.331 C 333.819 191.007 333.706 190.688 333.485 190.451 C 333.367 190.322 333.219 190.223 333.055 190.161 C 332.843 190.071 332.622 190.004 332.395 189.961 L 331.825 189.821 C 331.483 189.755 331.148 189.655 330.825 189.521 C 330.576 189.41 330.348 189.254 330.155 189.061 C 329.811 188.694 329.63 188.203 329.655 187.701 C 329.626 187.048 329.89 186.417 330.375 185.981 C 330.613 185.769 330.892 185.608 331.195 185.511 C 331.547 185.394 331.915 185.336 332.285 185.341 C 332.621 185.344 332.956 185.377 333.285 185.441 L 333.795 185.571 L 334.355 185.761 L 334.355 186.851 L 333.855 186.571 C 333.685 186.501 333.525 186.431 333.365 186.381 C 333.043 186.273 332.705 186.219 332.365 186.221 C 331.933 186.196 331.505 186.323 331.155 186.581 C 330.85 186.82 330.682 187.194 330.705 187.581 C 330.703 187.738 330.73 187.894 330.785 188.041 C 330.834 188.16 330.906 188.268 330.995 188.361 C 331.318 188.599 331.691 188.76 332.085 188.831 L 332.655 188.951 C 333.269 189.059 333.837 189.348 334.285 189.781 C 334.65 190.2 334.836 190.746 334.805 191.301 C 334.806 191.643 334.741 191.982 334.615 192.301 C 334.499 192.568 334.325 192.807 334.105 193.001 C 333.526 193.439 332.811 193.659 332.085 193.621 Z" style="fill: rgb(234, 171, 0); stroke: rgb(235, 171, 0); stroke-miterlimit: 10; stroke-width: 0.25px;"/>
  <path class="cls-6" d="M 340.855 193.501 C 340.297 193.558 339.738 193.397 339.295 193.051 C 338.939 192.629 338.772 192.079 338.835 191.531 L 338.835 188.241 L 337.235 188.241 L 337.235 187.501 L 338.835 187.501 L 338.835 185.911 L 339.835 185.491 L 339.835 187.491 L 342.075 187.491 L 342.075 188.251 L 339.835 188.251 L 339.835 191.501 C 339.803 191.829 339.896 192.158 340.095 192.421 C 340.338 192.623 340.652 192.717 340.965 192.681 L 342.075 192.681 L 342.075 193.501 L 340.855 193.501 Z" style="fill: rgb(234, 171, 0); stroke: rgb(235, 171, 0); stroke-miterlimit: 10; stroke-width: 0.25px;"/>
  <path class="cls-6" d="M 346.975 193.621 C 345.765 193.621 345.155 192.821 345.155 191.201 L 345.155 187.501 L 346.155 187.501 L 346.155 191.201 C 346.155 192.201 346.545 192.771 347.325 192.771 C 347.74 192.788 348.136 192.601 348.385 192.271 C 348.653 191.858 348.783 191.371 348.755 190.881 L 348.755 187.501 L 349.755 187.501 L 349.755 193.501 L 348.865 193.501 L 348.765 192.601 C 348.435 193.276 347.725 193.681 346.975 193.621 Z" style="fill: rgb(234, 171, 0); stroke: rgb(235, 171, 0); stroke-miterlimit: 10; stroke-width: 0.25px;"/>
  <path class="cls-6" d="M 354.655 193.621 C 354.269 193.635 353.887 193.538 353.555 193.341 C 353.261 193.156 353.017 192.902 352.845 192.601 C 352.671 192.287 352.543 191.95 352.465 191.601 C 352.385 191.229 352.345 190.85 352.345 190.471 C 352.302 189.665 352.523 188.868 352.975 188.201 C 353.367 187.656 354.006 187.345 354.675 187.371 C 355.002 187.366 355.325 187.442 355.615 187.591 C 355.901 187.743 356.132 187.981 356.275 188.271 L 356.275 185.151 L 357.275 185.151 L 357.275 193.501 L 356.385 193.501 L 356.285 192.741 C 355.956 193.323 355.323 193.665 354.655 193.621 Z M 354.825 192.791 C 355.096 192.804 355.364 192.726 355.585 192.571 C 355.774 192.42 355.922 192.224 356.015 192.001 C 356.123 191.763 356.194 191.51 356.225 191.251 C 356.27 191.003 356.297 190.752 356.305 190.501 C 356.308 190.246 356.291 189.992 356.255 189.741 C 356.224 189.481 356.153 189.229 356.045 188.991 C 355.955 188.766 355.807 188.569 355.615 188.421 C 355.394 188.265 355.126 188.187 354.855 188.201 C 354.588 188.186 354.323 188.263 354.105 188.421 C 353.911 188.569 353.76 188.765 353.665 188.991 C 353.571 189.232 353.504 189.484 353.465 189.741 C 353.399 190.248 353.399 190.763 353.465 191.271 C 353.505 191.53 353.572 191.785 353.665 192.031 C 353.762 192.254 353.914 192.45 354.105 192.601 C 354.32 192.736 354.572 192.802 354.825 192.791 L 354.825 192.791 Z" style="fill: rgb(234, 171, 0); stroke: rgb(235, 171, 0); stroke-miterlimit: 10; stroke-width: 0.25px;"/>
  <path class="cls-6" d="M 363.865 193.501 C 363.346 193.53 362.841 193.32 362.495 192.931 C 362.15 192.471 361.98 191.904 362.015 191.331 L 362.015 188.251 L 360.705 188.251 L 360.705 187.501 L 362.995 187.501 L 362.995 191.361 C 362.968 191.712 363.056 192.063 363.245 192.361 C 363.406 192.591 363.674 192.723 363.955 192.711 L 365.105 192.711 L 365.105 193.501 L 363.865 193.501 Z M 362.065 186.381 C 361.972 186.395 361.891 186.314 361.905 186.221 L 361.905 185.301 C 361.891 185.207 361.972 185.126 362.065 185.141 L 362.835 185.141 C 362.929 185.126 363.01 185.207 362.995 185.301 L 362.995 186.221 C 363.01 186.314 362.929 186.395 362.835 186.381 L 362.065 186.381 Z" style="fill: rgb(234, 171, 0); stroke: rgb(235, 171, 0); stroke-miterlimit: 10; stroke-width: 0.25px;"/>
  <path class="cls-6" d="M 370.145 193.621 C 369.417 193.665 368.71 193.365 368.235 192.811 C 367.752 192.134 367.519 191.31 367.575 190.481 C 367.519 189.649 367.756 188.825 368.245 188.151 C 369.281 187.069 371.01 187.069 372.045 188.151 C 372.531 188.834 372.764 189.664 372.705 190.501 C 372.762 191.33 372.529 192.154 372.045 192.831 C 371.569 193.374 370.867 193.666 370.145 193.621 Z M 370.145 192.791 C 370.6 192.809 371.029 192.58 371.265 192.191 C 371.565 191.669 371.704 191.071 371.665 190.471 C 371.704 189.877 371.564 189.285 371.265 188.771 C 371.029 188.382 370.6 188.152 370.145 188.171 C 369.688 188.152 369.257 188.382 369.015 188.771 C 368.724 189.288 368.589 189.878 368.625 190.471 C 368.589 191.069 368.724 191.666 369.015 192.191 C 369.258 192.578 369.689 192.807 370.145 192.791 Z" style="fill: rgb(234, 171, 0); stroke: rgb(235, 171, 0); stroke-miterlimit: 10; stroke-width: 0.25px;"/>
</svg>